<svg width="32" height="32" viewBox="0 0 32 32" fill="none" xmlns="http://www.w3.org/2000/svg">
<rect width="32" height="32" fill="#1F2937"/>
<path d="M1.22727 25.2727V13.2727H2.52273V14.6591H2.68182C2.7803 14.5076 2.91667 14.3144 3.09091 14.0795C3.26894 13.8409 3.52273 13.6288 3.85227 13.4432C4.18561 13.2538 4.63636 13.1591 5.20455 13.1591C5.93939 13.1591 6.58712 13.3428 7.14773 13.7102C7.70833 14.0777 8.14583 14.5985 8.46023 15.2727C8.77462 15.947 8.93182 16.7424 8.93182 17.6591C8.93182 18.5833 8.77462 19.3845 8.46023 20.0625C8.14583 20.7367 7.71023 21.2595 7.15341 21.6307C6.59659 21.9981 5.95455 22.1818 5.22727 22.1818C4.66667 22.1818 4.2178 22.089 3.88068 21.9034C3.54356 21.714 3.28409 21.5 3.10227 21.2614C2.92045 21.0189 2.7803 20.8182 2.68182 20.6591H2.56818V25.2727H1.22727ZM2.54545 17.6364C2.54545 18.2955 2.64205 18.8769 2.83523 19.3807C3.02841 19.8807 3.31061 20.2727 3.68182 20.5568C4.05303 20.8371 4.50758 20.9773 5.04545 20.9773C5.60606 20.9773 6.07386 20.8295 6.44886 20.5341C6.82765 20.2348 7.11174 19.8333 7.30114 19.3295C7.49432 18.822 7.59091 18.2576 7.59091 17.6364C7.59091 17.0227 7.49621 16.4697 7.30682 15.9773C7.12121 15.4811 6.83902 15.089 6.46023 14.8011C6.08523 14.5095 5.61364 14.3636 5.04545 14.3636C4.5 14.3636 4.04167 14.5019 3.67045 14.7784C3.29924 15.0511 3.01894 15.4337 2.82955 15.9261C2.64015 16.4148 2.54545 16.9848 2.54545 17.6364ZM12.6577 22L9.99858 13.2727H11.4077L13.294 19.9545H13.3849L15.2486 13.2727H16.6804L18.5213 19.9318H18.6122L20.4986 13.2727H21.9077L19.2486 22H17.9304L16.0213 15.2955H15.8849L13.9759 22H12.6577Z" fill="#14AE5C"/>
<path d="M26.929 22.1818C26.1108 22.1818 25.4063 21.9886 24.8153 21.6023C24.2244 21.2159 23.7699 20.6837 23.4517 20.0057C23.1335 19.3277 22.9744 18.553 22.9744 17.6818C22.9744 16.7955 23.1373 16.0133 23.4631 15.3352C23.7926 14.6534 24.2509 14.1212 24.8381 13.7386C25.429 13.3523 26.1184 13.1591 26.9062 13.1591C27.5199 13.1591 28.0729 13.2727 28.5653 13.5C29.0578 13.7273 29.4612 14.0455 29.7756 14.4545C30.09 14.8636 30.285 15.3409 30.3608 15.8864H29.0199C28.9176 15.4886 28.6903 15.1364 28.3381 14.8295C27.9896 14.5189 27.5199 14.3636 26.929 14.3636C26.4063 14.3636 25.9479 14.5 25.554 14.7727C25.1638 15.0417 24.8589 15.4223 24.6392 15.9148C24.4233 16.4034 24.3153 16.9773 24.3153 17.6364C24.3153 18.3106 24.4214 18.8977 24.6335 19.3977C24.8494 19.8977 25.1525 20.286 25.5426 20.5625C25.9366 20.839 26.3987 20.9773 26.929 20.9773C27.2775 20.9773 27.5938 20.9167 27.8778 20.7955C28.1619 20.6742 28.4025 20.5 28.5994 20.2727C28.7964 20.0455 28.9366 19.7727 29.0199 19.4545H30.3608C30.285 19.9697 30.0975 20.4337 29.7983 20.8466C29.5028 21.2557 29.1108 21.5814 28.6222 21.8239C28.1373 22.0625 27.5729 22.1818 26.929 22.1818Z" fill="#F5F5F5"/>
</svg>
